HIERARCHY
ROOT Hips
{
	OFFSET 53.890900 -6.819594 86.366997
	CHANNELS 6 Xposition Yposition Zposition Xrotation Yrotation Zrotation
	JOINT spine
	{
		OFFSET 0.000000 -0.393701 6.846367
		CHANNELS 3 Xrotation Yrotation Zrotation
		JOINT spine1
		{
			OFFSET 0.000000 -0.000001 9.496208
			CHANNELS 3 Xrotation Yrotation Zrotation
			JOINT spine2
			{
				OFFSET 0.000000 -0.000001 9.099091
				CHANNELS 3 Xrotation Yrotation Zrotation
				JOINT Neck
				{
					OFFSET 0.000000 -1.113784 23.361198
					CHANNELS 3 Xrotation Yrotation Zrotation
					JOINT Head
					{
						OFFSET 0.000000 -0.000001 7.058014
						CHANNELS 3 Xrotation Yrotation Zrotation
						End Site
						{
							OFFSET 0.000000 5.634187 17.084396
						}
					}
				}
				JOINT RightShoulder
				{
					OFFSET -3.831360 0.533489 9.826309
					CHANNELS 3 Xrotation Yrotation Zrotation
					JOINT RightArm
					{
						OFFSET 0.000000 -0.000002 12.888100
						CHANNELS 3 Xrotation Yrotation Zrotation
						JOINT RightArmRoll
						{
							OFFSET 0.000000 -0.000001 6.506165
							CHANNELS 3 Xrotation Yrotation Zrotation
							JOINT RightForeArm
							{
								OFFSET 0.000000 -0.000003 18.950104
								CHANNELS 3 Xrotation Yrotation Zrotation
								JOINT RightForeArmRoll
								{
									OFFSET 0.000000 -0.000001 7.300919
									CHANNELS 3 Xrotation Yrotation Zrotation
									JOINT RightHand
									{
										OFFSET 0.000000 -0.000002 14.651398
										CHANNELS 3 Xrotation Yrotation Zrotation
										End Site
										{
											OFFSET 0.000000 0.000000 0.100006
										}
									}
								}
							}
						}
					}
				}
				JOINT LeftShoulder
				{
					OFFSET 3.831360 0.533489 9.826309
					CHANNELS 3 Xrotation Yrotation Zrotation
					JOINT LeftArm
					{
						OFFSET 0.000000 -0.000002 12.888100
						CHANNELS 3 Xrotation Yrotation Zrotation
						JOINT LeftArmRoll
						{
							OFFSET 0.000000 -0.000001 6.506165
							CHANNELS 3 Xrotation Yrotation Zrotation
							JOINT LeftForeArm
							{
								OFFSET 0.000000 -0.000003 18.950104
								CHANNELS 3 Xrotation Yrotation Zrotation
								JOINT LeftForeArmRoll
								{
									OFFSET 0.000000 -0.000001 7.300919
									CHANNELS 3 Xrotation Yrotation Zrotation
									JOINT LeftHand
									{
										OFFSET 0.000000 -0.000002 14.651398
										CHANNELS 3 Xrotation Yrotation Zrotation
										End Site
										{
											OFFSET 0.000000 0.000000 0.100006
										}
									}
								}
							}
						}
					}
				}
			}
		}
	}
	JOINT RightUpLeg
	{
		OFFSET -6.068371 0.933477 -1.112778
		CHANNELS 3 Xrotation Yrotation Zrotation
		JOINT RightUpLegRoll
		{
			OFFSET 0.000000 -0.000003 17.179604
			CHANNELS 3 Xrotation Yrotation Zrotation
			JOINT RightLeg
			{
				OFFSET 0.000000 0.000003 -21.274300
				CHANNELS 3 Xrotation Yrotation Zrotation
				JOINT RightLegRoll
				{
					OFFSET 0.000000 -0.000003 21.343903
					CHANNELS 3 Xrotation Yrotation Zrotation
					JOINT RightFoot
					{
						OFFSET 0.000000 -0.000003 17.765198
						CHANNELS 3 Xrotation Yrotation Zrotation
						JOINT RightToeBase
						{
							OFFSET 0.000000 -0.000002 14.850792
							CHANNELS 3 Xrotation Yrotation Zrotation
							End Site
							{
								OFFSET 0.006294 0.829003 7.192123
							}
						}
					}
				}
			}
		}
	}
	JOINT LeftUpLeg
	{
		OFFSET 6.068371 0.933477 -1.112778
		CHANNELS 3 Xrotation Yrotation Zrotation
		JOINT LeftUpLegRoll
		{
			OFFSET 0.000000 -0.000003 17.179703
			CHANNELS 3 Xrotation Yrotation Zrotation
			JOINT LeftLeg
			{
				OFFSET 0.000000 -0.000003 21.274200
				CHANNELS 3 Xrotation Yrotation Zrotation
				JOINT LeftLegRoll
				{
					OFFSET 0.000000 -0.000004 21.541206
					CHANNELS 3 Xrotation Yrotation Zrotation
					JOINT LeftFoot
					{
						OFFSET 0.000000 -0.000003 17.567902
						CHANNELS 3 Xrotation Yrotation Zrotation
						JOINT LeftToeBase
						{
							OFFSET 0.000000 -0.000002 14.850800
							CHANNELS 3 Xrotation Yrotation Zrotation
							End Site
							{
								OFFSET -0.028210 0.829004 7.192123
							}
						}
					}
				}
			}
		}
	}
}
MOTION
Frames: 11
Frame Time: 0.041667
57.940498 -11.103113 87.627892 10.768706 0.778189 -2.594521 -2.775737 -0.880212 0.498687 -1.541472 -1.779146 0.963280 0.103831 -1.767477 0.984531 -8.481086 18.945399 -3.289155 10.849622 -21.100777 -4.482258 -12.715207 -43.161461 -14.299757 164.303588 -79.398121 122.906467 -0.000003 -0.000005 -0.000006 83.857443 19.596711 -10.902881 0.000003 0.000012 -3.006303 -5.000205 -7.999032 0.000123 -29.248024 67.047486 34.028327 46.613674 74.406312 -16.294588 0.000001 -0.000001 0.000002 82.852572 -8.664775 7.037912 -0.000002 -0.000006 3.003688 -5.000189 7.998751 -0.000166 -19.361631 -178.431015 0.221126 -179.999991 0.000005 -0.956003 161.290942 -6.175377 -1.358373 -0.000001 -0.000002 0.475235 72.557243 7.372434 0.635785 25.630027 -7.351208 -0.100910 -17.722555 -181.438388 -0.227022 -0.000021 -0.000004 -0.997492 -21.315991 4.181051 1.057193 -0.000009 -0.000005 -0.466516 77.818039 -7.319778 -0.084149 25.518697 7.354286 -0.007879 
57.946301 -10.977516 87.383789 10.788508 0.738561 -2.625580 -2.792838 -0.876694 0.517165 -1.575424 -1.772980 1.000115 0.069877 -1.760878 1.021287 -8.114182 18.849133 -3.375685 10.452361 -20.980191 -4.575618 -12.741762 -43.386393 -14.345470 163.459186 -79.501640 122.245920 -0.000003 -0.000005 -0.000005 83.626534 19.446879 -10.701680 0.000003 0.000013 -3.006304 -5.000203 -7.999030 0.000123 -29.387671 67.280778 34.169995 47.114840 74.356492 -16.923173 0.000001 -0.000004 0.000003 82.593366 -8.444082 6.799769 -0.000001 -0.000006 3.003692 -5.000189 7.998753 -0.000168 -19.743773 -178.422477 0.308247 -179.999991 0.000005 -0.976999 160.440761 -6.203349 -1.417562 -0.000001 -0.000002 0.502479 73.444587 7.426251 0.363208 25.599778 -7.350468 -0.082464 -17.927454 -181.404388 -0.306514 -0.000020 -0.000004 -1.012440 -21.808010 4.259414 1.083656 -0.000007 -0.000005 -0.492540 78.361374 -7.380913 0.213229 25.526369 7.354121 -0.008862 
57.945202 -10.983418 87.204689 10.810918 0.700629 -2.654787 -2.809898 -0.873748 0.535131 -1.609267 -1.767963 1.035897 0.036027 -1.755430 1.057003 -7.756350 18.755679 -3.458385 10.059789 -20.861595 -4.665987 -12.767016 -43.607111 -14.389163 162.566384 -79.593533 121.541673 -0.000003 -0.000006 -0.000006 83.380129 19.291784 -10.490748 0.000002 0.000011 -3.006302 -5.000204 -7.999032 0.000121 -29.531214 67.511591 34.315755 47.650156 74.303504 -17.586463 0.000001 -0.000004 0.000002 82.323785 -8.218653 6.555481 -0.000002 -0.000005 3.003692 -5.000190 7.998750 -0.000169 -20.137860 -178.411385 0.394980 -179.999991 0.000005 -0.996000 159.578026 -6.233555 -1.476123 -0.000001 -0.000002 0.528552 74.322792 7.472486 0.094966 25.570239 -7.349775 -0.064570 -18.151991 -181.374089 -0.385044 -0.000020 -0.000004 -1.026290 -22.326594 4.338018 1.111589 -0.000006 -0.000004 -0.517691 78.907796 -7.435126 0.503432 25.533522 7.353950 -0.009772 
57.988701 -10.938514 86.998894 10.836340 0.665001 -2.681709 -2.826797 -0.871511 0.552348 -1.642808 -1.764345 1.070166 0.002473 -1.751400 1.091225 -7.410807 18.666082 -3.536422 9.675209 -20.745643 -4.752646 -12.789833 -43.821555 -14.429287 161.629214 -79.668904 120.799805 -0.000005 -0.000005 -0.000009 83.115746 19.129787 -10.268285 0.000004 0.000009 -3.006299 -5.000203 -7.999033 0.000121 -29.679873 67.739043 34.466945 48.223973 74.248473 -18.289097 0.000001 -0.000003 0.000003 82.042696 -7.988275 6.304501 -0.000001 -0.000008 3.003688 -5.000192 7.998754 -0.000167 -20.542096 -178.395867 0.480702 -179.999991 0.000005 -1.014005 158.707082 -6.267850 -1.535497 -0.000000 -0.000002 0.552985 75.179858 7.510786 -0.163998 25.542421 -7.349144 -0.047644 -18.398078 -181.350320 -0.461754 -0.000019 -0.000004 -1.038700 -22.873670 4.416814 1.141144 -0.000007 -0.000005 -0.541484 79.451834 -7.481585 0.781393 25.539781 7.353786 -0.010575 
57.969601 -10.898114 86.817093 10.864772 0.632284 -2.705902 -2.843447 -0.870117 0.568578 -1.675863 -1.762377 1.102435 -0.030593 -1.749050 1.123476 -7.080732 18.581209 -3.609060 9.302003 -20.633139 -4.834863 -12.809146 -44.027932 -14.464351 160.652278 -79.723607 120.026709 -0.000002 -0.000001 -0.000010 82.830811 18.959318 -10.032174 0.000004 0.000010 -3.006300 -5.000205 -7.999033 0.000123 -29.833764 67.962083 34.623834 48.840244 74.192342 -19.035030 -0.000000 -0.000002 0.000003 81.748711 -7.752969 6.046418 -0.000001 -0.000005 3.003689 -5.000190 7.998753 -0.000168 -20.955292 -178.375950 0.565448 -179.999991 0.000005 -1.030001 157.832421 -6.306210 -1.593469 -0.000001 -0.000003 0.575304 76.003750 7.541227 -0.409184 25.517030 -7.348580 -0.032174 -18.667732 -181.333968 -0.536371 -0.000020 -0.000004 -1.049300 -23.451354 4.495728 1.172491 -0.000006 -0.000005 -0.563436 79.988099 -7.519742 1.041677 25.545123 7.353643 -0.011265 
58.009602 -10.856920 86.593903 10.896513 0.603089 -2.726936 -2.859758 -0.869696 0.583588 -1.708239 -1.762317 1.132240 -0.062977 -1.748629 1.153268 -6.769292 18.502339 -3.675514 8.943492 -20.524707 -4.911970 -12.823737 -44.224075 -14.492692 159.641656 -79.753715 119.230460 -0.000002 -0.000006 -0.000008 82.522940 18.778762 -9.780682 0.000003 0.000009 -3.006298 -5.000206 -7.999033 0.000124 -29.993355 68.179741 34.787055 49.503760 74.136000 -19.829152 -0.000001 -0.000002 0.000004 81.440471 -7.512591 5.780493 -0.000001 -0.000007 3.003692 -5.000191 7.998756 -0.000166 -21.375770 -178.350774 0.648891 -179.999991 0.000005 -1.044003 156.958498 -6.351454 -1.650943 0.000000 -0.000002 0.595042 76.782500 7.564221 -0.635860 25.494777 -7.348105 -0.018638 -18.963066 -181.326892 -0.608275 -0.000020 -0.000004 -1.057750 -24.061778 4.574689 1.205817 -0.000008 -0.000004 -0.583064 80.511142 -7.549229 1.279142 25.549159 7.353517 -0.011786 
58.005100 -10.821715 86.413094 10.931563 0.578026 -2.744368 -2.875621 -0.870383 0.597138 -1.739745 -1.764427 1.159086 -0.094488 -1.750418 1.180143 -6.479675 18.430287 -3.735109 8.603012 -20.421200 -4.983300 -12.832456 -44.408032 -14.512723 158.605708 -79.755135 118.421642 -0.000002 -0.000005 -0.000009 82.189790 18.586263 -9.512054 0.000003 0.000011 -3.006299 -5.000205 -7.999033 0.000124 -30.159219 68.391094 34.957318 50.218348 74.080129 -20.675336 0.000002 -0.000000 0.000004 81.116973 -7.266773 5.506500 -0.000002 -0.000006 3.003692 -5.000192 7.998758 -0.000170 -21.802027 -178.320325 0.731043 -179.999991 0.000005 -1.054002 156.089958 -6.402671 -1.707408 -0.000000 -0.000002 0.611728 77.504144 7.580345 -0.838995 25.476474 -7.347719 -0.007503 -19.286079 -181.329023 -0.677441 -0.000020 -0.000004 -1.063680 -24.706973 4.653609 1.241304 -0.000007 -0.000004 -0.599883 81.015510 -7.570017 1.488493 25.551780 7.353412 -0.012127 
58.055099 -10.778418 86.202789 10.970227 0.557709 -2.757754 -2.890943 -0.872310 0.608993 -1.770183 -1.768936 1.182499 -0.124931 -1.754646 1.203604 -6.215041 18.366360 -3.787101 8.283878 -20.323300 -5.048258 -12.834122 -44.577923 -14.522864 157.554337 -79.724003 117.611896 -0.000003 -0.000003 -0.000006 81.829088 18.379875 -9.224373 0.000003 0.000011 -3.006298 -5.000203 -7.999031 0.000123 -30.331521 68.594989 35.134934 50.989018 74.025583 -21.578830 0.000001 -0.000004 0.000004 80.776699 -7.015489 5.223898 -0.000001 -0.000006 3.003693 -5.000191 7.998750 -0.000170 -22.232684 -178.283756 0.811531 -179.999991 0.000005 -1.060996 155.230966 -6.461720 -1.763506 -0.000001 -0.000002 0.624892 78.156776 7.590515 -1.014158 25.462821 -7.347439 0.000761 -19.638706 -181.343093 -0.742852 -0.000020 -0.000004 -1.066740 -25.389066 4.732422 1.279170 -0.000008 -0.000004 -0.613411 81.495761 -7.582179 1.664244 25.552781 7.353324 -0.012273 
58.053398 -10.736718 86.010391 11.012702 0.543304 -2.766881 -2.906469 -0.875770 0.620473 -1.800996 -1.776502 1.205099 -0.155748 -1.761943 1.226291 -5.962061 18.301553 -3.836647 7.974896 -20.223422 -5.111199 -12.835950 -44.733716 -14.532329 156.502652 -79.672593 116.803611 0.000001 -0.000004 -0.000009 81.452929 18.164005 -8.926555 0.000003 0.000012 -3.006302 -5.000207 -7.999034 0.000123 -30.497119 68.788386 35.305675 51.839708 73.976269 -22.554746 0.000001 0.000001 0.000001 80.419399 -6.756850 4.932209 -0.000002 -0.000005 3.003690 -5.000191 7.998752 -0.000167 -22.679467 -178.240371 0.891454 -179.999991 0.000005 -1.064999 154.356756 -6.532495 -1.821020 0.000000 -0.000002 0.634463 78.761001 7.596385 -1.166771 25.453212 -7.347239 0.006635 -20.031854 -181.369840 -0.803982 -0.000020 -0.000004 -1.067030 -26.130738 4.809801 1.321191 -0.000007 -0.000005 -0.624600 81.969011 -7.585927 1.808900 25.552066 7.353260 -0.012191 
58.071400 -10.722419 85.831093 11.058887 0.534966 -2.772066 -2.922825 -0.880825 0.632813 -1.833452 -1.787296 1.229346 -0.188214 -1.772441 1.250668 -5.707277 18.228339 -3.888349 7.664025 -20.115308 -5.176021 -12.844658 -44.878048 -14.549853 155.456103 -79.614393 115.990313 -0.000002 -0.000004 -0.000007 81.073061 17.943592 -8.627018 0.000004 0.000013 -3.006303 -5.000205 -7.999033 0.000122 -30.645498 68.970157 35.458029 52.782944 73.933075 -23.609196 0.000001 0.000001 0.000005 80.046388 -6.489375 4.631997 -0.000001 -0.000005 3.003695 -5.000190 7.998754 -0.000165 -23.152810 -178.189472 0.971397 -179.999991 0.000005 -1.064999 153.444120 -6.614964 -1.880178 -0.000000 -0.000002 0.640934 79.345959 7.599272 -1.306486 25.446027 -7.347103 0.010979 -20.470955 -181.409087 -0.860534 -0.000020 -0.000004 -1.065050 -26.946138 4.884786 1.368728 -0.000009 -0.000005 -0.634707 82.454201 -7.582106 1.929871 25.549639 7.353207 -0.011896 
58.080002 -10.676915 85.630699 11.108583 0.531789 -2.773744 -2.939815 -0.887259 0.645660 -1.867132 -1.800884 1.254532 -0.221897 -1.785716 1.276015 -5.453678 18.149419 -3.940770 7.353254 -20.001345 -5.241538 -12.858108 -45.012149 -14.572844 154.411794 -79.547265 115.172917 -0.000003 -0.000004 -0.000008 80.686944 17.717461 -8.324456 0.000003 0.000010 -3.006300 -5.000205 -7.999031 0.000126 -30.780528 69.142285 35.596265 53.804931 73.892074 -24.731924 -0.000000 -0.000001 0.000003 79.659362 -6.213063 4.324561 -0.000003 -0.000006 3.003689 -5.000192 7.998753 -0.000167 -23.648914 -178.132112 1.050949 -179.999991 0.000005 -1.064002 152.499423 -6.707819 -1.943707 0.000001 -0.000002 0.644677 79.911991 7.599643 -1.434155 25.441169 -7.347016 0.013988 -20.950297 -181.458810 -0.912893 -0.000019 -0.000004 -1.061010 -27.824881 4.957840 1.421402 -0.000009 -0.000004 -0.643706 82.948228 -7.572148 2.029853 25.545801 7.353178 -0.011421 
